<mxfile host="app.diagrams.net" agent="Mozilla/5.0 (Macintosh; Intel Mac OS X 10_15_7) AppleWebKit/537.36 (KHTML, like Gecko) Chrome/135.0.0.0 Safari/537.36" version="26.2.14">
  <diagram name="Page-1" id="ad52d381-51e7-2e0d-a935-2d0ddd2fd229">
    <mxGraphModel dx="2582" dy="1259" grid="1" gridSize="10" guides="1" tooltips="1" connect="1" arrows="1" fold="1" page="0" pageScale="1" pageWidth="1100" pageHeight="850" background="none" math="0" shadow="0">
      <root>
        <mxCell id="0" />
        <mxCell id="1" parent="0" />
        <mxCell id="2c924340bb9dbf6c-2" value="Voice Biomarker" style="ellipse;whiteSpace=wrap;html=1;rounded=1;shadow=1;comic=0;labelBackgroundColor=none;strokeWidth=2;fontFamily=Verdana;fontSize=12;align=center;" parent="1" vertex="1">
          <mxGeometry x="350" y="10" width="120" height="80" as="geometry" />
        </mxCell>
        <mxCell id="2c924340bb9dbf6c-3" value="&lt;span&gt;SAP&lt;/span&gt;" style="ellipse;whiteSpace=wrap;html=1;rounded=1;shadow=1;comic=0;labelBackgroundColor=none;strokeWidth=2;fontFamily=Verdana;fontSize=12;align=center;" parent="1" vertex="1">
          <mxGeometry x="782" y="282" width="120" height="80" as="geometry" />
        </mxCell>
        <mxCell id="xwB6e1dVZzUeRVQKmJ4m-3" style="rounded=0;orthogonalLoop=1;jettySize=auto;html=1;curved=0;strokeColor=light-dark(#b3b3b3, #ededed);noEdgeStyle=1;" edge="1" parent="1" source="2c924340bb9dbf6c-4" target="xwB6e1dVZzUeRVQKmJ4m-1">
          <mxGeometry relative="1" as="geometry" />
        </mxCell>
        <mxCell id="2c924340bb9dbf6c-4" value="PROJECTS" style="ellipse;whiteSpace=wrap;html=1;rounded=1;shadow=1;comic=0;labelBackgroundColor=none;strokeWidth=2;fontFamily=Verdana;fontSize=12;align=center;fillColor=#f5f5f5;fontColor=#333333;strokeColor=#666666;" parent="1" vertex="1">
          <mxGeometry x="400" y="132" width="120" height="120" as="geometry" />
        </mxCell>
        <mxCell id="2c924340bb9dbf6c-5" value="CDSS" style="ellipse;whiteSpace=wrap;html=1;rounded=1;shadow=1;comic=0;labelBackgroundColor=none;strokeWidth=2;fontFamily=Verdana;fontSize=12;align=center;" parent="1" vertex="1">
          <mxGeometry x="260" y="310" width="120" height="80" as="geometry" />
        </mxCell>
        <mxCell id="2c924340bb9dbf6c-9" value="&lt;span&gt;Silence Trimming&lt;/span&gt;" style="whiteSpace=wrap;html=1;rounded=1;shadow=1;comic=0;labelBackgroundColor=none;strokeWidth=2;fontFamily=Verdana;fontSize=12;align=center;arcSize=50;" parent="1" vertex="1">
          <mxGeometry x="210" y="-100" width="120" height="40" as="geometry" />
        </mxCell>
        <mxCell id="2c924340bb9dbf6c-10" value="&lt;span&gt;Feature Extraction&lt;/span&gt;" style="whiteSpace=wrap;html=1;rounded=1;shadow=1;comic=0;labelBackgroundColor=none;strokeWidth=2;fontFamily=Verdana;fontSize=12;align=center;arcSize=50;" parent="1" vertex="1">
          <mxGeometry x="-40" y="-10" width="110" height="30" as="geometry" />
        </mxCell>
        <mxCell id="2c924340bb9dbf6c-15" value="&lt;span&gt;Reranker&lt;/span&gt;" style="whiteSpace=wrap;html=1;rounded=1;shadow=1;comic=0;labelBackgroundColor=none;strokeWidth=2;fontFamily=Verdana;fontSize=12;align=center;arcSize=50;" parent="1" vertex="1">
          <mxGeometry x="782" y="460" width="100" height="20" as="geometry" />
        </mxCell>
        <mxCell id="2c924340bb9dbf6c-17" value="&lt;span&gt;PDF extraction&lt;/span&gt;" style="whiteSpace=wrap;html=1;rounded=1;shadow=1;comic=0;labelBackgroundColor=none;strokeWidth=2;fontFamily=Verdana;fontSize=12;align=center;arcSize=50;" parent="1" vertex="1">
          <mxGeometry x="580" y="322" width="100" height="20" as="geometry" />
        </mxCell>
        <mxCell id="2c924340bb9dbf6c-18" value="Neo4j&lt;div&gt;Graph Database&lt;/div&gt;" style="whiteSpace=wrap;html=1;rounded=1;shadow=1;comic=0;labelBackgroundColor=none;strokeWidth=2;fontFamily=Verdana;fontSize=12;align=center;arcSize=50;" parent="1" vertex="1">
          <mxGeometry x="594" y="462" width="118" height="28" as="geometry" />
        </mxCell>
        <mxCell id="2c924340bb9dbf6c-19" value="Table parsing" style="whiteSpace=wrap;html=1;rounded=1;shadow=1;comic=0;labelBackgroundColor=none;strokeWidth=2;fontFamily=Verdana;fontSize=12;align=center;arcSize=50;" parent="1" vertex="1">
          <mxGeometry x="820" y="120" width="100" height="20" as="geometry" />
        </mxCell>
        <mxCell id="2c924340bb9dbf6c-27" value="" style="edgeStyle=none;rounded=1;html=1;labelBackgroundColor=none;startArrow=none;startFill=0;startSize=5;endArrow=classicThin;endFill=1;endSize=5;jettySize=auto;orthogonalLoop=1;strokeColor=#B3B3B3;strokeWidth=1;fontFamily=Verdana;fontSize=12;exitX=1;exitY=0.5;exitDx=0;exitDy=0;noEdgeStyle=1;" parent="1" source="xwB6e1dVZzUeRVQKmJ4m-8" target="2c924340bb9dbf6c-10" edge="1">
          <mxGeometry relative="1" as="geometry" />
        </mxCell>
        <mxCell id="2c924340bb9dbf6c-31" value="" style="edgeStyle=none;rounded=1;html=1;labelBackgroundColor=none;startArrow=none;startFill=0;startSize=5;endArrow=classicThin;endFill=1;endSize=5;jettySize=auto;orthogonalLoop=1;strokeColor=#B3B3B3;strokeWidth=1;fontFamily=Verdana;fontSize=12;noEdgeStyle=1;" parent="1" source="2c924340bb9dbf6c-4" target="2c924340bb9dbf6c-2" edge="1">
          <mxGeometry x="-0.003" relative="1" as="geometry">
            <mxPoint as="offset" />
          </mxGeometry>
        </mxCell>
        <mxCell id="2c924340bb9dbf6c-32" value="" style="edgeStyle=none;rounded=1;html=1;labelBackgroundColor=none;startArrow=none;startFill=0;startSize=5;endArrow=classicThin;endFill=1;endSize=5;jettySize=auto;orthogonalLoop=1;strokeColor=#B3B3B3;strokeWidth=1;fontFamily=Verdana;fontSize=12;noEdgeStyle=1;" parent="1" source="2c924340bb9dbf6c-4" target="2c924340bb9dbf6c-3" edge="1">
          <mxGeometry relative="1" as="geometry" />
        </mxCell>
        <mxCell id="2c924340bb9dbf6c-33" value="" style="edgeStyle=none;rounded=1;html=1;labelBackgroundColor=none;startArrow=none;startFill=0;startSize=5;endArrow=classicThin;endFill=1;endSize=5;jettySize=auto;orthogonalLoop=1;strokeColor=#B3B3B3;strokeWidth=1;fontFamily=Verdana;fontSize=12;noEdgeStyle=1;" parent="1" source="2c924340bb9dbf6c-4" target="2c924340bb9dbf6c-5" edge="1">
          <mxGeometry relative="1" as="geometry" />
        </mxCell>
        <mxCell id="2c924340bb9dbf6c-41" value="" style="edgeStyle=none;rounded=1;html=1;labelBackgroundColor=none;startArrow=none;startFill=0;startSize=5;endArrow=classicThin;endFill=1;endSize=5;jettySize=auto;orthogonalLoop=1;strokeColor=#B3B3B3;strokeWidth=1;fontFamily=Verdana;fontSize=12;noEdgeStyle=1;" parent="1" source="2c924340bb9dbf6c-3" target="2c924340bb9dbf6c-18" edge="1">
          <mxGeometry relative="1" as="geometry" />
        </mxCell>
        <mxCell id="2c924340bb9dbf6c-42" value="" style="edgeStyle=none;rounded=1;html=1;labelBackgroundColor=none;startArrow=none;startFill=0;startSize=5;endArrow=classicThin;endFill=1;endSize=5;jettySize=auto;orthogonalLoop=1;strokeColor=#B3B3B3;strokeWidth=1;fontFamily=Verdana;fontSize=12;noEdgeStyle=1;" parent="1" source="2c924340bb9dbf6c-3" target="2c924340bb9dbf6c-17" edge="1">
          <mxGeometry relative="1" as="geometry" />
        </mxCell>
        <mxCell id="2c924340bb9dbf6c-44" value="" style="edgeStyle=none;rounded=1;html=1;labelBackgroundColor=none;startArrow=none;startFill=0;startSize=5;endArrow=classicThin;endFill=1;endSize=5;jettySize=auto;orthogonalLoop=1;strokeColor=#B3B3B3;strokeWidth=1;fontFamily=Verdana;fontSize=12;noEdgeStyle=1;" parent="1" source="2c924340bb9dbf6c-3" target="2c924340bb9dbf6c-15" edge="1">
          <mxGeometry relative="1" as="geometry" />
        </mxCell>
        <mxCell id="2c924340bb9dbf6c-58" value="&lt;span&gt;GDPR conform LLM hosting&lt;/span&gt;" style="whiteSpace=wrap;html=1;rounded=1;shadow=1;comic=0;labelBackgroundColor=none;strokeWidth=2;fontFamily=Verdana;fontSize=12;align=center;arcSize=50;" parent="1" vertex="1">
          <mxGeometry x="340" y="456" width="100" height="40" as="geometry" />
        </mxCell>
        <mxCell id="2c924340bb9dbf6c-77" value="research" style="edgeStyle=none;rounded=1;html=1;labelBackgroundColor=none;startArrow=none;startFill=0;startSize=5;endArrow=classicThin;endFill=1;endSize=5;jettySize=auto;orthogonalLoop=1;strokeColor=#B3B3B3;strokeWidth=1;fontFamily=Verdana;fontSize=12;noEdgeStyle=1;" parent="1" source="2c924340bb9dbf6c-5" target="2c924340bb9dbf6c-58" edge="1">
          <mxGeometry relative="1" as="geometry" />
        </mxCell>
        <mxCell id="xwB6e1dVZzUeRVQKmJ4m-1" value="ePA PDF extraction" style="ellipse;whiteSpace=wrap;html=1;rounded=1;shadow=1;comic=0;labelBackgroundColor=none;strokeWidth=2;fontFamily=Verdana;fontSize=12;align=center;" vertex="1" parent="1">
          <mxGeometry x="652" y="72" width="120" height="80" as="geometry" />
        </mxCell>
        <mxCell id="xwB6e1dVZzUeRVQKmJ4m-8" value="Machine Learning" style="rounded=1;whiteSpace=wrap;html=1;shadow=1;" vertex="1" parent="1">
          <mxGeometry x="77" y="30" width="120" height="60" as="geometry" />
        </mxCell>
        <mxCell id="xwB6e1dVZzUeRVQKmJ4m-9" value="" style="edgeStyle=none;rounded=1;html=1;labelBackgroundColor=none;startArrow=none;startFill=0;startSize=5;endArrow=classicThin;endFill=1;endSize=5;jettySize=auto;orthogonalLoop=1;strokeColor=#B3B3B3;strokeWidth=1;fontFamily=Verdana;fontSize=12;noEdgeStyle=1;" edge="1" parent="1" source="2c924340bb9dbf6c-2" target="xwB6e1dVZzUeRVQKmJ4m-8">
          <mxGeometry relative="1" as="geometry">
            <mxPoint x="283" y="135" as="sourcePoint" />
            <mxPoint x="219" y="100" as="targetPoint" />
          </mxGeometry>
        </mxCell>
        <mxCell id="xwB6e1dVZzUeRVQKmJ4m-10" value="Deep Learning" style="rounded=1;whiteSpace=wrap;html=1;shadow=1;" vertex="1" parent="1">
          <mxGeometry x="432" y="-128" width="120" height="60" as="geometry" />
        </mxCell>
        <mxCell id="xwB6e1dVZzUeRVQKmJ4m-11" value="" style="edgeStyle=none;rounded=1;html=1;labelBackgroundColor=none;startArrow=none;startFill=0;startSize=5;endArrow=classicThin;endFill=1;endSize=5;jettySize=auto;orthogonalLoop=1;strokeColor=#B3B3B3;strokeWidth=1;fontFamily=Verdana;fontSize=12;exitX=0.589;exitY=0.028;exitDx=0;exitDy=0;exitPerimeter=0;entryX=0.388;entryY=0.988;entryDx=0;entryDy=0;entryPerimeter=0;noEdgeStyle=1;" edge="1" parent="1" target="xwB6e1dVZzUeRVQKmJ4m-10" source="2c924340bb9dbf6c-2">
          <mxGeometry relative="1" as="geometry">
            <mxPoint x="182" y="483" as="sourcePoint" />
            <mxPoint x="99" y="470" as="targetPoint" />
          </mxGeometry>
        </mxCell>
        <mxCell id="xwB6e1dVZzUeRVQKmJ4m-12" value="&lt;span&gt;UK COVID Dataset&lt;/span&gt;" style="whiteSpace=wrap;html=1;rounded=1;shadow=1;comic=0;labelBackgroundColor=none;strokeWidth=2;fontFamily=Verdana;fontSize=12;align=center;arcSize=50;" vertex="1" parent="1">
          <mxGeometry x="434" y="-180" width="118" height="28" as="geometry" />
        </mxCell>
        <mxCell id="xwB6e1dVZzUeRVQKmJ4m-13" value="" style="edgeStyle=none;rounded=1;html=1;labelBackgroundColor=none;startArrow=none;startFill=0;startSize=5;endArrow=classicThin;endFill=1;endSize=5;jettySize=auto;orthogonalLoop=1;strokeColor=#B3B3B3;strokeWidth=1;fontFamily=Verdana;fontSize=12;noEdgeStyle=1;" edge="1" parent="1" target="xwB6e1dVZzUeRVQKmJ4m-12" source="xwB6e1dVZzUeRVQKmJ4m-10">
          <mxGeometry relative="1" as="geometry">
            <mxPoint x="526.6981132075471" y="-128" as="sourcePoint" />
          </mxGeometry>
        </mxCell>
        <mxCell id="xwB6e1dVZzUeRVQKmJ4m-15" value="benefits from" style="edgeStyle=none;rounded=1;html=1;labelBackgroundColor=none;startArrow=none;startFill=0;startSize=5;endArrow=classicThin;endFill=1;endSize=5;jettySize=auto;orthogonalLoop=1;strokeColor=#B3B3B3;strokeWidth=1;fontFamily=Verdana;fontSize=12;noEdgeStyle=1;" edge="1" parent="1" source="xwB6e1dVZzUeRVQKmJ4m-10" target="2c924340bb9dbf6c-9">
          <mxGeometry x="-0.0003" relative="1" as="geometry">
            <mxPoint x="300" y="195" as="sourcePoint" />
            <mxPoint x="159" y="322" as="targetPoint" />
            <mxPoint as="offset" />
          </mxGeometry>
        </mxCell>
        <mxCell id="xwB6e1dVZzUeRVQKmJ4m-16" value="benefits from" style="edgeStyle=none;rounded=1;html=1;labelBackgroundColor=none;startArrow=none;startFill=0;startSize=5;endArrow=classicThin;endFill=1;endSize=5;jettySize=auto;orthogonalLoop=1;strokeColor=#B3B3B3;strokeWidth=1;fontFamily=Verdana;fontSize=12;noEdgeStyle=1;" edge="1" parent="1" source="xwB6e1dVZzUeRVQKmJ4m-8" target="2c924340bb9dbf6c-9">
          <mxGeometry x="-0.0003" relative="1" as="geometry">
            <mxPoint x="99" y="320" as="sourcePoint" />
            <mxPoint x="98" y="260" as="targetPoint" />
            <mxPoint as="offset" />
          </mxGeometry>
        </mxCell>
        <mxCell id="xwB6e1dVZzUeRVQKmJ4m-17" value="&lt;span&gt;Feature Selection&lt;/span&gt;" style="whiteSpace=wrap;html=1;rounded=1;shadow=1;comic=0;labelBackgroundColor=none;strokeWidth=2;fontFamily=Verdana;fontSize=12;align=center;arcSize=50;" vertex="1" parent="1">
          <mxGeometry x="-44" y="-68" width="110" height="30" as="geometry" />
        </mxCell>
        <mxCell id="xwB6e1dVZzUeRVQKmJ4m-18" value="" style="edgeStyle=none;rounded=1;html=1;labelBackgroundColor=none;startArrow=none;startFill=0;startSize=5;endArrow=classicThin;endFill=1;endSize=5;jettySize=auto;orthogonalLoop=1;strokeColor=#B3B3B3;strokeWidth=1;fontFamily=Verdana;fontSize=12;exitX=0.38;exitY=-0.067;exitDx=0;exitDy=0;exitPerimeter=0;entryX=0.418;entryY=1.013;entryDx=0;entryDy=0;entryPerimeter=0;noEdgeStyle=1;" edge="1" parent="1" source="2c924340bb9dbf6c-10" target="xwB6e1dVZzUeRVQKmJ4m-17">
          <mxGeometry relative="1" as="geometry">
            <mxPoint x="290" y="-20" as="sourcePoint" />
            <mxPoint x="329" y="-110" as="targetPoint" />
          </mxGeometry>
        </mxCell>
        <mxCell id="xwB6e1dVZzUeRVQKmJ4m-21" value="&lt;span&gt;Dataset Class&lt;/span&gt;" style="whiteSpace=wrap;html=1;rounded=1;shadow=1;comic=0;labelBackgroundColor=none;strokeWidth=2;fontFamily=Verdana;fontSize=12;align=center;arcSize=50;" vertex="1" parent="1">
          <mxGeometry x="434" y="-230" width="118" height="28" as="geometry" />
        </mxCell>
        <mxCell id="xwB6e1dVZzUeRVQKmJ4m-22" value="" style="edgeStyle=none;rounded=1;html=1;labelBackgroundColor=none;startArrow=none;startFill=0;startSize=5;endArrow=classicThin;endFill=1;endSize=5;jettySize=auto;orthogonalLoop=1;strokeColor=#B3B3B3;strokeWidth=1;fontFamily=Verdana;fontSize=12;noEdgeStyle=1;" edge="1" parent="1" target="xwB6e1dVZzUeRVQKmJ4m-21" source="xwB6e1dVZzUeRVQKmJ4m-12">
          <mxGeometry relative="1" as="geometry">
            <mxPoint x="546.8113207547171" y="-240" as="sourcePoint" />
          </mxGeometry>
        </mxCell>
        <mxCell id="xwB6e1dVZzUeRVQKmJ4m-25" value="Spectrogram + CNN" style="whiteSpace=wrap;html=1;rounded=1;shadow=1;comic=0;labelBackgroundColor=none;strokeWidth=2;fontFamily=Verdana;fontSize=12;align=center;arcSize=50;" vertex="1" parent="1">
          <mxGeometry x="502" y="-300" width="118" height="28" as="geometry" />
        </mxCell>
        <mxCell id="xwB6e1dVZzUeRVQKmJ4m-26" value="" style="edgeStyle=none;rounded=1;html=1;labelBackgroundColor=none;startArrow=none;startFill=0;startSize=5;endArrow=classicThin;endFill=1;endSize=5;jettySize=auto;orthogonalLoop=1;strokeColor=#B3B3B3;strokeWidth=1;fontFamily=Verdana;fontSize=12;noEdgeStyle=1;" edge="1" parent="1" target="xwB6e1dVZzUeRVQKmJ4m-25" source="xwB6e1dVZzUeRVQKmJ4m-21">
          <mxGeometry relative="1" as="geometry">
            <mxPoint x="493" y="-240" as="sourcePoint" />
          </mxGeometry>
        </mxCell>
        <mxCell id="xwB6e1dVZzUeRVQKmJ4m-28" value="wav2vec2 + MLP" style="whiteSpace=wrap;html=1;rounded=1;shadow=1;comic=0;labelBackgroundColor=none;strokeWidth=2;fontFamily=Verdana;fontSize=12;align=center;arcSize=50;" vertex="1" parent="1">
          <mxGeometry x="370" y="-300" width="118" height="28" as="geometry" />
        </mxCell>
        <mxCell id="xwB6e1dVZzUeRVQKmJ4m-29" value="" style="edgeStyle=none;rounded=1;html=1;labelBackgroundColor=none;startArrow=none;startFill=0;startSize=5;endArrow=classicThin;endFill=1;endSize=5;jettySize=auto;orthogonalLoop=1;strokeColor=#B3B3B3;strokeWidth=1;fontFamily=Verdana;fontSize=12;noEdgeStyle=1;" edge="1" parent="1" target="xwB6e1dVZzUeRVQKmJ4m-28" source="xwB6e1dVZzUeRVQKmJ4m-21">
          <mxGeometry relative="1" as="geometry">
            <mxPoint x="355" y="-251" as="sourcePoint" />
          </mxGeometry>
        </mxCell>
        <mxCell id="xwB6e1dVZzUeRVQKmJ4m-30" value="Finetune" style="whiteSpace=wrap;html=1;rounded=1;shadow=1;comic=0;labelBackgroundColor=none;strokeWidth=2;fontFamily=Verdana;fontSize=12;align=center;arcSize=50;" vertex="1" parent="1">
          <mxGeometry x="370" y="-360" width="118" height="28" as="geometry" />
        </mxCell>
        <mxCell id="xwB6e1dVZzUeRVQKmJ4m-31" value="" style="edgeStyle=none;rounded=1;html=1;labelBackgroundColor=none;startArrow=none;startFill=0;startSize=5;endArrow=classicThin;endFill=1;endSize=5;jettySize=auto;orthogonalLoop=1;strokeColor=#B3B3B3;strokeWidth=1;fontFamily=Verdana;fontSize=12;noEdgeStyle=1;" edge="1" parent="1" target="xwB6e1dVZzUeRVQKmJ4m-30" source="xwB6e1dVZzUeRVQKmJ4m-28">
          <mxGeometry relative="1" as="geometry">
            <mxPoint x="455" y="-360" as="sourcePoint" />
          </mxGeometry>
        </mxCell>
        <mxCell id="xwB6e1dVZzUeRVQKmJ4m-32" value="Finetune" style="whiteSpace=wrap;html=1;rounded=1;shadow=1;comic=0;labelBackgroundColor=none;strokeWidth=2;fontFamily=Verdana;fontSize=12;align=center;arcSize=50;" vertex="1" parent="1">
          <mxGeometry x="502" y="-360" width="118" height="28" as="geometry" />
        </mxCell>
        <mxCell id="xwB6e1dVZzUeRVQKmJ4m-33" value="" style="edgeStyle=none;rounded=1;html=1;labelBackgroundColor=none;startArrow=none;startFill=0;startSize=5;endArrow=classicThin;endFill=1;endSize=5;jettySize=auto;orthogonalLoop=1;strokeColor=#B3B3B3;strokeWidth=1;fontFamily=Verdana;fontSize=12;noEdgeStyle=1;" edge="1" parent="1" target="xwB6e1dVZzUeRVQKmJ4m-32" source="xwB6e1dVZzUeRVQKmJ4m-25">
          <mxGeometry relative="1" as="geometry">
            <mxPoint x="579" y="-316" as="sourcePoint" />
          </mxGeometry>
        </mxCell>
        <mxCell id="xwB6e1dVZzUeRVQKmJ4m-34" value="" style="edgeStyle=none;rounded=1;html=1;labelBackgroundColor=none;startArrow=none;startFill=0;startSize=5;endArrow=classicThin;endFill=1;endSize=5;jettySize=auto;orthogonalLoop=1;strokeColor=#B3B3B3;strokeWidth=1;fontFamily=Verdana;fontSize=12;noEdgeStyle=1;" edge="1" parent="1" source="2c924340bb9dbf6c-5" target="2c924340bb9dbf6c-18">
          <mxGeometry relative="1" as="geometry">
            <mxPoint x="811" y="361" as="sourcePoint" />
            <mxPoint x="683" y="452" as="targetPoint" />
          </mxGeometry>
        </mxCell>
        <mxCell id="xwB6e1dVZzUeRVQKmJ4m-35" value="GraphRAG" style="whiteSpace=wrap;html=1;rounded=1;shadow=1;comic=0;labelBackgroundColor=none;strokeWidth=2;fontFamily=Verdana;fontSize=12;align=center;arcSize=50;" vertex="1" parent="1">
          <mxGeometry x="594" y="516" width="118" height="28" as="geometry" />
        </mxCell>
        <mxCell id="xwB6e1dVZzUeRVQKmJ4m-36" value="" style="edgeStyle=none;rounded=1;html=1;labelBackgroundColor=none;startArrow=none;startFill=0;startSize=5;endArrow=classicThin;endFill=1;endSize=5;jettySize=auto;orthogonalLoop=1;strokeColor=#B3B3B3;strokeWidth=1;fontFamily=Verdana;fontSize=12;noEdgeStyle=1;" edge="1" parent="1" target="xwB6e1dVZzUeRVQKmJ4m-35" source="2c924340bb9dbf6c-18">
          <mxGeometry relative="1" as="geometry">
            <mxPoint x="450" y="430" as="sourcePoint" />
            <mxPoint x="694" y="509" as="targetPoint" />
          </mxGeometry>
        </mxCell>
        <mxCell id="xwB6e1dVZzUeRVQKmJ4m-38" value="" style="edgeStyle=none;rounded=1;html=1;labelBackgroundColor=none;startArrow=none;startFill=0;startSize=5;endArrow=classicThin;endFill=1;endSize=5;jettySize=auto;orthogonalLoop=1;strokeColor=#B3B3B3;strokeWidth=1;fontFamily=Verdana;fontSize=12;noEdgeStyle=1;" edge="1" parent="1" source="2c924340bb9dbf6c-5" target="2c924340bb9dbf6c-17">
          <mxGeometry relative="1" as="geometry">
            <mxPoint x="449" y="383" as="sourcePoint" />
            <mxPoint x="634" y="472" as="targetPoint" />
          </mxGeometry>
        </mxCell>
        <mxCell id="xwB6e1dVZzUeRVQKmJ4m-39" value="" style="edgeStyle=none;rounded=1;html=1;labelBackgroundColor=none;startArrow=none;startFill=0;startSize=5;endArrow=classicThin;endFill=1;endSize=5;jettySize=auto;orthogonalLoop=1;strokeColor=#B3B3B3;strokeWidth=1;fontFamily=Verdana;fontSize=12;noEdgeStyle=1;" edge="1" parent="1" source="xwB6e1dVZzUeRVQKmJ4m-1" target="2c924340bb9dbf6c-17">
          <mxGeometry relative="1" as="geometry">
            <mxPoint x="792" y="334" as="sourcePoint" />
            <mxPoint x="670" y="340" as="targetPoint" />
          </mxGeometry>
        </mxCell>
        <mxCell id="xwB6e1dVZzUeRVQKmJ4m-40" value="" style="edgeStyle=none;rounded=1;html=1;labelBackgroundColor=none;startArrow=none;startFill=0;startSize=5;endArrow=classicThin;endFill=1;endSize=5;jettySize=auto;orthogonalLoop=1;strokeColor=#B3B3B3;strokeWidth=1;fontFamily=Verdana;fontSize=12;noEdgeStyle=1;" edge="1" parent="1" source="2c924340bb9dbf6c-19" target="2c924340bb9dbf6c-17">
          <mxGeometry relative="1" as="geometry">
            <mxPoint x="950" y="200" as="sourcePoint" />
            <mxPoint x="625" y="332" as="targetPoint" />
          </mxGeometry>
        </mxCell>
        <mxCell id="xwB6e1dVZzUeRVQKmJ4m-45" value="requires" style="edgeLabel;html=1;align=center;verticalAlign=middle;resizable=0;points=[];" vertex="1" connectable="0" parent="xwB6e1dVZzUeRVQKmJ4m-40">
          <mxGeometry x="-0.0131" y="-5" relative="1" as="geometry">
            <mxPoint as="offset" />
          </mxGeometry>
        </mxCell>
        <mxCell id="xwB6e1dVZzUeRVQKmJ4m-41" value="" style="edgeStyle=none;rounded=1;html=1;labelBackgroundColor=none;startArrow=none;startFill=0;startSize=5;endArrow=classicThin;endFill=1;endSize=5;jettySize=auto;orthogonalLoop=1;strokeColor=#B3B3B3;strokeWidth=1;fontFamily=Verdana;fontSize=12;noEdgeStyle=1;" edge="1" parent="1" source="2c924340bb9dbf6c-5" target="2c924340bb9dbf6c-15">
          <mxGeometry relative="1" as="geometry">
            <mxPoint x="855" y="372" as="sourcePoint" />
            <mxPoint x="861" y="470" as="targetPoint" />
          </mxGeometry>
        </mxCell>
        <mxCell id="xwB6e1dVZzUeRVQKmJ4m-42" value="" style="edgeStyle=none;rounded=1;html=1;labelBackgroundColor=none;startArrow=none;startFill=0;startSize=5;endArrow=classicThin;endFill=1;endSize=5;jettySize=auto;orthogonalLoop=1;strokeColor=#B3B3B3;strokeWidth=1;fontFamily=Verdana;fontSize=12;noEdgeStyle=1;" edge="1" parent="1" source="2c924340bb9dbf6c-5" target="2c924340bb9dbf6c-19">
          <mxGeometry relative="1" as="geometry">
            <mxPoint x="460" y="356" as="sourcePoint" />
            <mxPoint x="590" y="346" as="targetPoint" />
          </mxGeometry>
        </mxCell>
        <mxCell id="xwB6e1dVZzUeRVQKmJ4m-43" value="" style="edgeStyle=none;rounded=1;html=1;labelBackgroundColor=none;startArrow=none;startFill=0;startSize=5;endArrow=classicThin;endFill=1;endSize=5;jettySize=auto;orthogonalLoop=1;strokeColor=#B3B3B3;strokeWidth=1;fontFamily=Verdana;fontSize=12;noEdgeStyle=1;" edge="1" parent="1" source="2c924340bb9dbf6c-3" target="2c924340bb9dbf6c-19">
          <mxGeometry relative="1" as="geometry">
            <mxPoint x="449" y="337" as="sourcePoint" />
            <mxPoint x="858" y="150" as="targetPoint" />
          </mxGeometry>
        </mxCell>
        <mxCell id="xwB6e1dVZzUeRVQKmJ4m-46" value="research" style="edgeStyle=none;rounded=1;html=1;labelBackgroundColor=none;startArrow=none;startFill=0;startSize=5;endArrow=classicThin;endFill=1;endSize=5;jettySize=auto;orthogonalLoop=1;strokeColor=#B3B3B3;strokeWidth=1;fontFamily=Verdana;fontSize=12;noEdgeStyle=1;" edge="1" parent="1" source="xwB6e1dVZzUeRVQKmJ4m-1" target="2c924340bb9dbf6c-58">
          <mxGeometry relative="1" as="geometry">
            <mxPoint x="400" y="400" as="sourcePoint" />
            <mxPoint x="400" y="472" as="targetPoint" />
          </mxGeometry>
        </mxCell>
      </root>
    </mxGraphModel>
  </diagram>
</mxfile>
